<!DOCTYPE svg PUBLIC "-//W3C//DTD SVG 1.1//EN" "http://www.w3.org/Graphics/SVG/1.1/DTD/svg11.dtd">
<!-- Uploaded to: SVG Repo, www.svgrepo.com, Transformed by: SVG Repo Mixer Tools -->
<svg fill=" #546ced" width="800px" height="800px" viewBox="0 0 36.00 36.00" version="1.1" preserveAspectRatio="xMidYMid meet" xmlns="http://www.w3.org/2000/svg" xmlns:xlink="http://www.w3.org/1999/xlink">
<g id="SVGRepo_bgCarrier" stroke-width="0" transform="translate(3.7799999999999994,3.7799999999999994), scale(0.79)">
<rect x="0" y="0" width="36.00" height="36.00" rx="18" fill="#ffffff" strokewidth="0"/>
</g>
<g id="SVGRepo_tracerCarrier" stroke-linecap="round" stroke-linejoin="round"/>
<g id="SVGRepo_iconCarrier"> <title>ruble-solid</title> <path d="M20.75,9.25H15v8.81h5.79a4.66,4.66,0,0,0,4.86-4.4A4.65,4.65,0,0,0,20.75,9.25Z" class="clr-i-solid clr-i-solid-path-1"/>
<path d="M18,2A16,16,0,1,0,34,18,16,16,0,0,0,18,2Zm2.75,18.56H15V22h8.29a1,1,0,0,1,0,2H15v5a1.25,1.25,0,0,1-2.5,0V24H11.25a1,1,0,0,1,0-2h1.21V20.56H11.25a1.25,1.25,0,0,1,0-2.5h1.21V8a1.25,1.25,0,0,1,1.25-1.25h7a7.14,7.14,0,0,1,7.36,6.9A7.15,7.15,0,0,1,20.75,20.56Z" class="clr-i-solid clr-i-solid-path-2"/> <rect x="0" y="0" width="36" height="36" fill-opacity="0"/> </g>
</svg>